# xmcd CD database file
#
# Track frame offsets:
#	212
#	23297
#	35562
#	51325
#	70115
#	84762
#	103695
#	129395
#	143424
#	156702
#
# Disc length: 2386 seconds
#
# Revision: 2
# Processed by: cddbd v1.5.1PL0 Copyright (c) Steve Scherf et al.
# Submitted via: CDex 1.51
#
DISCID=7909500a
DTITLE=Jon Schmidt - August End
DYEAR=1991
DGENRE=New Age
TTITLE0=Heart of a Child
TTITLE1=Homecoming
TTITLE2=Nativity
TTITLE3=First Love
TTITLE4=Ridin' West
TTITLE5=August End
TTITLE6=Piece of the Storm
TTITLE7=All of Me (Sut's Fav.)
TTITLE8=Song of the Ocean
TTITLE9=Bedtime Story
EXTD=YEAR: 1991
EXTT0=
EXTT1=
EXTT2=
EXTT3=
EXTT4=
EXTT5=
EXTT6=
EXTT7=
EXTT8=
EXTT9=
PLAYORDER=
